<svg id="Layer_1" data-name="Layer 1" xmlns="http://www.w3.org/2000/svg" viewBox="0 0 103.06 30"><defs><style>.cls-1{fill:#00adbb;}.cls-2{fill:#4a4f54;}</style></defs><path class="cls-1" d="M102.86,16,97.63.88a1,1,0,0,0-.91-.66h-3.3a1,1,0,0,0-.92.66L87.27,16a.46.46,0,0,0,.47.65h2.13a1,1,0,0,0,.92-.65l.68-2a1,1,0,0,1,.92-.65h5.35a1,1,0,0,1,.92.65l.69,2a1,1,0,0,0,.91.65h2.14a.46.46,0,0,0,.46-.65m-6.14-5.61h-3.3A.46.46,0,0,1,93,9.71l1.89-5.45c.13-.36.33-.36.45,0l1.89,5.45a.46.46,0,0,1-.46.65"/><path class="cls-1" d="M2.39.22H.8A.69.69,0,0,0,.11.91V4.27A.69.69,0,0,0,.8,5H2.39a.69.69,0,0,0,.69-.69V.91A.69.69,0,0,0,2.39.22"/><path class="cls-1" d="M7.66.22H5.53a.69.69,0,0,0-.69.69v15a.69.69,0,0,0,.69.69H7.66a.69.69,0,0,0,.69-.69V.91A.69.69,0,0,0,7.66.22"/><path class="cls-1" d="M25.12.22H23a.69.69,0,0,0-.69.69v9c0,.38-.17.43-.38.12L15.81.8A1.43,1.43,0,0,0,14.74.22H12.56a.69.69,0,0,0-.69.69v15a.69.69,0,0,0,.69.69h2.13a.69.69,0,0,0,.69-.69V7c0-.38.17-.43.38-.11l6.1,9.19a1.47,1.47,0,0,0,1.08.57h2.18a.69.69,0,0,0,.69-.69V.91a.69.69,0,0,0-.69-.69"/><path class="cls-1" d="M40.06.22H28.25a.7.7,0,0,0-.69.69v1.6a.7.7,0,0,0,.69.69h3.5a.69.69,0,0,1,.69.69v12a.69.69,0,0,0,.69.69h2.13a.69.69,0,0,0,.69-.69v-12a.69.69,0,0,1,.69-.69h3.42a.69.69,0,0,0,.69-.69V.91a.69.69,0,0,0-.69-.69"/><path class="cls-1" d="M53.35,7H43.2a.69.69,0,0,0-.69.69v8.26a.69.69,0,0,0,.69.69H53.35a.69.69,0,0,0,.69-.69V14.34a.69.69,0,0,0-.69-.69H46.72A.69.69,0,0,1,46,13V10.57a.69.69,0,0,1,.69-.69h6.63A.69.69,0,0,0,54,9.19V7.66A.69.69,0,0,0,53.35,7"/><path class="cls-1" d="M53.35.22H43.2a.69.69,0,0,0-.69.69v1.6a.69.69,0,0,0,.69.69H53.35A.69.69,0,0,0,54,2.51V.91a.69.69,0,0,0-.69-.69"/><path class="cls-1" d="M66.44,9.71s3.18-.52,3.2-4.47c0-5.2-5.89-5-5.89-5H56.48a.69.69,0,0,0-.68.69v1.6a.69.69,0,0,0,.68.69h7.1s2.49-.15,2.52,1.87S63.54,7,63.54,7c-.38,0-7.06,0-7.06,0a.69.69,0,0,0-.68.69v8.27a.69.69,0,0,0,.68.69h2.14a.69.69,0,0,0,.69-.69V10.57A.69.69,0,0,1,60,9.88h1.34a1.33,1.33,0,0,1,1,.59L65.55,16a1.32,1.32,0,0,0,1,.6H69c.38,0,.54-.27.35-.6l-3.21-5.6a.45.45,0,0,1,.33-.71"/><path class="cls-1" d="M82.05,9.72s3.19-.5,3.19-4.48c0-5-5.89-5-5.89-5L78,.22H72.09a.69.69,0,0,0-.69.69v15a.69.69,0,0,0,.69.69h2.13a.69.69,0,0,0,.69-.69V10.57a.69.69,0,0,1,.69-.69h1.34a1.32,1.32,0,0,1,1,.6L81.15,16a1.33,1.33,0,0,0,1,.6h2.4c.38,0,.53-.27.34-.6l-3.21-5.6a.44.44,0,0,1,.34-.7M79.14,7H75.6a.72.72,0,0,1-.69-.72V3.89a.69.69,0,0,1,.69-.69h3.59s2.5-.17,2.52,1.87S79.14,7,79.14,7"/><path class="cls-2" d="M58.33,26.58h-.65l-.44,2.47H58a1.41,1.41,0,0,0,1.41-1.54c0-.61-.4-.93-1.07-.93M58,28.78h-.36l.34-1.93h.34c.51,0,.82.17.82.66A1.13,1.13,0,0,1,58,28.78"/><path class="cls-2" d="M60.23,28.25c.76,0,1.16-.19,1.16-.61s-.23-.48-.63-.48a1,1,0,0,0-1,1.12c0,.54.28.8.69.8a2,2,0,0,0,.85-.26l-.11-.22a1.57,1.57,0,0,1-.69.25c-.29,0-.44-.2-.44-.55v-.05Zm.51-.87c.21,0,.36.1.36.27s-.27.41-.85.41H60a.77.77,0,0,1,.7-.68"/><polygon class="cls-2" points="62.3 28.75 62.01 27.2 61.71 27.2 62.11 29.05 62.4 29.05 63.47 27.2 63.13 27.2 62.3 28.75"/><path class="cls-2" d="M64,28.25c.76,0,1.17-.19,1.17-.61s-.23-.48-.64-.48a1,1,0,0,0-1,1.12c0,.54.28.8.7.8a1.93,1.93,0,0,0,.84-.26l-.11-.22a1.57,1.57,0,0,1-.69.25c-.29,0-.44-.2-.44-.55v-.05Zm.51-.87c.21,0,.37.1.37.27s-.27.41-.86.41h-.21a.77.77,0,0,1,.7-.68"/><polygon class="cls-2" points="65.4 29.05 65.69 29.05 66.15 26.48 65.86 26.48 65.4 29.05"/><path class="cls-2" d="M67.25,27.16a1,1,0,0,0-1,1.12.74.74,0,0,0,.83.8,1,1,0,0,0,1-1.12.75.75,0,0,0-.84-.8m-.12,1.69a.5.5,0,0,1-.54-.57c0-.45.25-.89.67-.89s.53.24.53.57-.25.89-.66.89"/><path class="cls-2" d="M69.6,27.16a1.13,1.13,0,0,0-.66.27l0-.23h-.3l-.45,2.56h.29l.17-1a1,1,0,0,0,.65.29c.51,0,.85-.53.85-1.26a.58.58,0,0,0-.6-.66m-.3,1.68a.77.77,0,0,1-.55-.29l.14-.85a1.06,1.06,0,0,1,.63-.3c.25,0,.37.17.37.45,0,.5-.22,1-.59,1"/><path class="cls-2" d="M71,28.25c.76,0,1.16-.19,1.16-.61s-.23-.48-.64-.48a1,1,0,0,0-1,1.12c0,.54.28.8.69.8a2,2,0,0,0,.85-.26L72,28.6a1.57,1.57,0,0,1-.69.25c-.29,0-.44-.2-.44-.55v-.05Zm.51-.87c.21,0,.36.1.36.27s-.27.41-.85.41h-.21a.77.77,0,0,1,.7-.68"/><path class="cls-2" d="M73,27.59l.07-.39h-.29l-.33,1.85h.3l.17-1a.89.89,0,0,1,.8-.6l0-.27a.85.85,0,0,0-.77.41"/><path class="cls-2" d="M75.78,27.16a1,1,0,0,0-1,1.12.74.74,0,0,0,.83.8,1,1,0,0,0,1-1.12.74.74,0,0,0-.83-.8m-.12,1.69a.5.5,0,0,1-.54-.57c0-.45.25-.89.66-.89a.5.5,0,0,1,.54.57c0,.45-.25.89-.66.89"/><path class="cls-2" d="M77.34,26.94l0,.26H77l0,.22h.25L77,29c-.07.37-.09.44-.52.56l.07.24c.63-.16.65-.3.74-.82l.28-1.56H78l0-.22h-.5l0-.26c0-.12.08-.21.21-.21a1.5,1.5,0,0,1,.29.06l.11-.2a1.35,1.35,0,0,0-.45-.11c-.27,0-.4.14-.45.46"/><path class="cls-2" d="M80.83,28.15a.71.71,0,0,1-.75.67c-.49,0-.54-.3-.48-.67l.29-1.57h-.31l-.27,1.54c-.1.55,0,1,.77,1a1,1,0,0,0,1-.91l.28-1.59h-.3Z"/><path class="cls-2" d="M82.92,27.16a1.63,1.63,0,0,0-.78.28l0-.24H81.9l-.33,1.85h.29l.24-1.35a1.43,1.43,0,0,1,.72-.3c.25,0,.29.17.25.38l-.22,1.27h.29l.22-1.3c.07-.34-.06-.59-.44-.59"/><polygon class="cls-2" points="84.06 26.83 84.38 26.83 84.44 26.49 84.11 26.49 84.06 26.83"/><polygon class="cls-2" points="83.68 29.05 83.97 29.05 84.3 27.2 84 27.2 83.68 29.05"/><path class="cls-2" d="M86.07,27.46a.9.9,0,0,0-.63-.3c-.51,0-.86.53-.86,1.27,0,.49.27.65.54.65a1.15,1.15,0,0,0,.72-.32l-.18,1H86l.46-2.56h-.29Zm-.18,1a1.07,1.07,0,0,1-.69.35c-.21,0-.32-.17-.32-.44,0-.5.23-1,.62-1a.74.74,0,0,1,.53.3Z"/><path class="cls-2" d="M88,28.54a1.43,1.43,0,0,1-.72.3c-.24,0-.28-.16-.25-.38l.23-1.26H87l-.23,1.29c-.06.34.07.59.45.59a1.55,1.55,0,0,0,.77-.28l0,.25h.3l.32-1.85h-.29Z"/><path class="cls-2" d="M89.3,28.25c.76,0,1.16-.19,1.16-.61s-.23-.48-.64-.48a1,1,0,0,0-1,1.12c0,.54.28.8.69.8a2,2,0,0,0,.85-.26l-.12-.22a1.49,1.49,0,0,1-.69.25c-.28,0-.43-.2-.43-.55v-.05Zm.51-.87c.21,0,.36.1.36.27s-.27.41-.85.41h-.21a.77.77,0,0,1,.7-.68"/><path class="cls-2" d="M92,27.16a1.63,1.63,0,0,0-.78.28l0-.24H91l-.33,1.85H91l.24-1.35a1.43,1.43,0,0,1,.72-.3c.25,0,.29.17.25.38L92,29.05h.29l.22-1.3c.07-.34-.06-.59-.44-.59"/><path class="cls-2" d="M93.35,28.25c.76,0,1.16-.19,1.16-.61s-.22-.48-.63-.48a1,1,0,0,0-1,1.12c0,.54.28.8.7.8a1.93,1.93,0,0,0,.84-.26l-.11-.22a1.57,1.57,0,0,1-.69.25c-.29,0-.44-.2-.44-.55v-.05Zm.51-.87c.21,0,.37.1.37.27s-.28.41-.86.41h-.21a.77.77,0,0,1,.7-.68"/><path class="cls-2" d="M95.63,27.39a1.36,1.36,0,0,1,.58.17l.15-.19a1.51,1.51,0,0,0-.74-.21c-.39,0-.69.2-.69.54s.28.43.53.51.47.14.47.34-.2.3-.43.3a1.43,1.43,0,0,1-.65-.21l-.16.19a1.58,1.58,0,0,0,.81.25c.41,0,.73-.19.73-.56S96,28.1,95.66,28s-.44-.12-.44-.31.18-.29.41-.29"/><path class="cls-2" d="M97.44,27.39a1.36,1.36,0,0,1,.58.17l.15-.19a1.51,1.51,0,0,0-.74-.21c-.39,0-.69.2-.69.54s.28.43.53.51.47.14.47.34-.2.3-.43.3a1.43,1.43,0,0,1-.65-.21l-.16.19a1.58,1.58,0,0,0,.81.25c.41,0,.73-.19.73-.56s-.23-.42-.57-.53-.44-.12-.44-.31.18-.29.41-.29"/><polygon class="cls-2" points="9.83 21.03 9.83 20.78 7.99 20.78 7.99 23.79 9.86 23.79 9.86 23.55 8.27 23.55 8.27 22.41 9.56 22.41 9.56 22.17 8.27 22.17 8.27 21.03 9.83 21.03"/><polygon class="cls-2" points="97.73 23.79 98.03 23.79 98.03 20.78 97.75 20.78 97.75 23.38 96.09 20.78 95.79 20.78 95.79 23.79 96.07 23.79 96.07 21.2 97.73 23.79"/><path class="cls-2" d="M6,21a1.78,1.78,0,0,1,1,.39l.16-.2A2,2,0,0,0,6,20.73c-.61,0-1.16.47-1.16,1.56S5.35,23.84,6,23.84a2.11,2.11,0,0,0,1.12-.44l-.16-.21a1.79,1.79,0,0,1-1,.4c-.51,0-.88-.48-.88-1.3S5.46,21,6,21"/><path class="cls-2" d="M13,21.63c0-.64-.48-.85-1.1-.85H10.8v3h.28V22.48h.8l.82,1.31H13l-.85-1.32c.48,0,.84-.29.84-.84m-1.1.61h-.83V21h.85c.45,0,.79.17.79.61s-.34.61-.81.61"/><polygon class="cls-2" points="14.96 23.79 14.96 21.03 15.93 21.03 15.93 20.78 13.72 20.78 13.72 21.03 14.68 21.03 14.68 23.79 14.96 23.79"/><rect class="cls-2" x="16.8" y="20.78" width="0.28" height="3.01"/><polygon class="cls-2" points="20.07 21.03 20.07 20.78 18.24 20.78 18.24 23.79 18.52 23.79 18.52 22.41 19.77 22.41 19.77 22.17 18.52 22.17 18.52 21.03 20.07 21.03"/><rect class="cls-2" x="20.97" y="20.78" width="0.28" height="3.01"/><polygon class="cls-2" points="24.24 21.03 24.24 20.78 22.41 20.78 22.41 23.79 24.27 23.79 24.27 23.55 22.68 23.55 22.68 22.41 23.98 22.41 23.98 22.17 22.68 22.17 22.68 21.03 24.24 21.03"/><path class="cls-2" d="M27.48,22.29c0-1.08-.54-1.51-1.39-1.51h-.88v3h.88c.85,0,1.39-.43,1.39-1.5m-1.4,1.26h-.59V21h.59c.77,0,1.1.4,1.1,1.26s-.33,1.26-1.1,1.26"/><path class="cls-2" d="M32.29,21.63c0-.64-.48-.85-1.09-.85H30.08v3h.28V22.48h.81L32,23.79h.32l-.85-1.32c.48,0,.84-.29.84-.84m-1.1.61h-.83V21h.85c.46,0,.8.17.8.61s-.34.61-.82.61"/><path class="cls-2" d="M33.09,23.06a.82.82,0,0,0,.93.78,1.23,1.23,0,0,0,.94-.43l.37.38h.35l-.57-.58a2.44,2.44,0,0,0,.36-1h-.28a2.39,2.39,0,0,1-.26.81l-.81-.83c.31-.22.59-.46.59-.84a.62.62,0,0,0-.67-.62.67.67,0,0,0-.72.64,1.19,1.19,0,0,0,.42.79c-.32.22-.65.47-.65.9m.49-1.68A.41.41,0,0,1,34,21a.37.37,0,0,1,.41.4c0,.29-.22.48-.49.66a1,1,0,0,1-.37-.64m.34.95.86.9a1,1,0,0,1-.76.38.58.58,0,0,1-.65-.57c0-.3.25-.5.55-.71"/><path class="cls-2" d="M38.8,22.29c0-1.08-.54-1.51-1.39-1.51h-.88v3h.88c.85,0,1.39-.43,1.39-1.5m-1.4,1.26h-.59V21h.59c.77,0,1.1.4,1.1,1.26s-.33,1.26-1.1,1.26"/><path class="cls-2" d="M42.43,21a1.85,1.85,0,0,1,1,.39l.15-.2a2,2,0,0,0-1.11-.45c-.62,0-1.17.47-1.17,1.56s.55,1.55,1.17,1.55a2.07,2.07,0,0,0,1.11-.44l-.15-.21a1.86,1.86,0,0,1-1,.4c-.52,0-.89-.48-.89-1.3s.37-1.3.89-1.3"/><polygon class="cls-2" points="46.28 21.03 46.28 20.78 44.45 20.78 44.45 23.79 46.31 23.79 46.31 23.55 44.73 23.55 44.73 22.41 46.02 22.41 46.02 22.17 44.73 22.17 44.73 21.03 46.28 21.03"/><polygon class="cls-2" points="49.19 23.79 49.48 23.79 49.48 20.78 49.2 20.78 49.2 23.38 47.54 20.78 47.25 20.78 47.25 23.79 47.53 23.79 47.53 21.2 49.19 23.79"/><polygon class="cls-2" points="51.61 23.79 51.61 21.03 52.57 21.03 52.57 20.78 50.36 20.78 50.36 21.03 51.33 21.03 51.33 23.79 51.61 23.79"/><polygon class="cls-2" points="55.28 21.03 55.28 20.78 53.45 20.78 53.45 23.79 55.31 23.79 55.31 23.55 53.73 23.55 53.73 22.41 55.02 22.41 55.02 22.17 53.73 22.17 53.73 21.03 55.28 21.03"/><path class="cls-2" d="M58.46,21.63c0-.64-.48-.85-1.09-.85H56.25v3h.28V22.48h.81l.81,1.31h.32l-.85-1.32c.48,0,.84-.29.84-.84m-1.1.61h-.83V21h.86c.45,0,.79.17.79.61s-.34.61-.82.61"/><path class="cls-2" d="M63.45,22.29c0-.86-.34-1.56-1.28-1.56s-1.28.7-1.28,1.56.34,1.55,1.28,1.55,1.28-.71,1.28-1.55m-2.27,0c0-.72.24-1.31,1-1.31s1,.59,1,1.31-.24,1.3-1,1.3-1-.58-1-1.3"/><polygon class="cls-2" points="66.32 21.03 66.32 20.78 64.48 20.78 64.48 23.79 64.76 23.79 64.76 22.41 66.01 22.41 66.01 22.17 64.76 22.17 64.76 21.03 66.32 21.03"/><path class="cls-2" d="M70.52,23l.3.78h.3l-1.18-3h-.3l-1.17,3h.3l.29-.78Zm-.73-2,.64,1.72H69.15Z"/><path class="cls-2" d="M71.86,20.78v1.95a1.09,1.09,0,1,0,2.17,0V20.78h-.28v1.95c0,.48-.14.86-.8.86s-.82-.38-.82-.86V20.78Z"/><polygon class="cls-2" points="76.14 23.79 76.14 21.03 77.11 21.03 77.11 20.78 74.89 20.78 74.89 21.03 75.86 21.03 75.86 23.79 76.14 23.79"/><path class="cls-2" d="M80.29,22.29c0-.86-.35-1.56-1.28-1.56s-1.28.7-1.28,1.56.34,1.55,1.28,1.55,1.28-.71,1.28-1.55m-2.27,0c0-.72.24-1.31,1-1.31s1,.59,1,1.31-.25,1.3-1,1.3-1-.58-1-1.3"/><polygon class="cls-2" points="84.04 23.79 84.04 20.78 83.74 20.78 82.68 22.98 81.61 20.78 81.32 20.78 81.32 23.79 81.6 23.79 81.6 21.26 82.58 23.29 82.78 23.29 83.76 21.25 83.76 23.79 84.04 23.79"/><path class="cls-2" d="M87,23l.29.78h.3l-1.18-3h-.29l-1.18,3h.3l.29-.78Zm-.74-2,.65,1.72H85.61Z"/><polygon class="cls-2" points="89.06 23.79 89.06 21.03 90.02 21.03 90.02 20.78 87.81 20.78 87.81 21.03 88.78 21.03 88.78 23.79 89.06 23.79"/><rect class="cls-2" x="90.9" y="20.78" width="0.28" height="3.01"/><path class="cls-2" d="M94.76,22.29c0-.86-.34-1.56-1.28-1.56s-1.28.7-1.28,1.56.35,1.55,1.28,1.55,1.28-.71,1.28-1.55m-2.27,0c0-.72.25-1.31,1-1.31s1,.59,1,1.31-.25,1.3-1,1.3-1-.58-1-1.3"/><path class="cls-2" d="M102.17,19.49H.89a.82.82,0,0,0-.82.82v7.9A.82.82,0,0,0,.88,29H54.13v-.26H.88a.55.55,0,0,1-.55-.56v-7.9a.56.56,0,0,1,.56-.56H102.17a.56.56,0,0,1,.55.56v4a.56.56,0,0,1-.56.55H4.84v.27h97.32a.83.83,0,0,0,.83-.82v-4a.82.82,0,0,0-.82-.82"/></svg>